# xmcd
#
# Track frame offsets:
#	150
#	14770
#	27682
#	43515
#	58930
#	81406
#	97932
#	109098
#	122860
#	130509
#	140035
#	145323
#	154697
#	159310
#	170855
#	174686
#	185170
#	190311
#	200029
#	210860
#	213835
#	222683
#
# Disc length: 3180 seconds
#
# Revision: 1
# Processed by: cddbd v1.5.2PL0 Copyright (c) Steve Scherf et al.
# Submitted via: audiograbber 1.83.01
#
DISCID=590c6a16
DTITLE=Early Jerry Garcia - Jerry Garcia and Sara and Black Mountain Boys
DYEAR=1900
DGENRE=
TTITLE0=Deep Elem Blues
TTITLE1=Will The Weaver
TTITLE2=I Truly Understand
TTITLE3=All The Good Times Are Passed And Gone
TTITLE4=Long Black Veil
TTITLE5=The Man Who Wrote "Home Sweet Home" Never Was A Married Man
TTITLE6=Keno The Rent Man
TTITLE7=Foggy Mountain Top
TTITLE8=Instrumental
TTITLE9=Katie Mae
TTITLE10=Intros
TTITLE11=Homestead On The Farm
TTITLE12=Banter
TTITLE13=Bare Foot Nellie
TTITLE14=Banter
TTITLE15=She's More To Be Pitied Than Scolded
TTITLE16=Tuning
TTITLE17=They Can Lock Me Up For Loving You
TTITLE18=The Hand Of The Lord
TTITLE19=Banter
TTITLE20=Who'll Sing For Me
TTITLE21=Darling Aller Lee
EXTD=
EXTT0=
EXTT1=
EXTT2=
EXTT3=
EXTT4=
EXTT5=
EXTT6=
EXTT7=
EXTT8=
EXTT9=
EXTT10=
EXTT11=
EXTT12=
EXTT13=
EXTT14=
EXTT15=
EXTT16=
EXTT17=
EXTT18=
EXTT19=
EXTT20=
EXTT21=
PLAYORDER=
